<svg version="1.1" viewBox="0.0 0.0 450.23884514435696 174.71916010498688" fill="none" stroke="none" stroke-linecap="square" stroke-miterlimit="10" xmlns:xlink="http://www.w3.org/1999/xlink" xmlns="http://www.w3.org/2000/svg"><clipPath id="p.0"><path d="m0 0l450.23883 0l0 174.71916l-450.23883 0l0 -174.71916z" clip-rule="nonzero"/></clipPath><g clip-path="url(#p.0)"><path fill="#000000" fill-opacity="0.0" d="m0 0l450.23883 0l0 174.71916l-450.23883 0z" fill-rule="evenodd"/><path fill="#000000" fill-opacity="0.0" d="m0.001312336 0.09973753l450.2362 0l0 174.51968l-450.2362 0z" fill-rule="evenodd"/><path fill="#3878e5" d="m75.04065 43.27662l16.125 0l0 88.70312l-16.125 0l0 -39.296867l-38.53125 0l0 39.296867l-16.125 0l0 -88.70312l16.125 0l0 35.453125l38.53125 0l0 -35.453125z" fill-rule="nonzero"/><path fill="#dc3c2a" d="m172.19766 98.448494q0 7.9375 -2.3125 14.46875q-2.296875 6.515625 -6.53125 11.125q-4.21875 4.6093674 -10.171875 7.1718674q-5.953125 2.5625 -13.125 2.5625q-7.15625 0 -13.046875 -2.5625q-5.890625 -2.5625 -10.125 -7.1718674q-4.21875 -4.609375 -6.59375 -11.125q-2.359375 -6.53125 -2.359375 -14.46875q0 -7.9375 2.359375 -14.40625q2.375 -6.46875 6.65625 -11.0625q4.296875 -4.609375 10.1875 -7.109375q5.890625 -2.5 12.921875 -2.5q7.046875 0 13.0 2.5q5.953125 2.5 10.171875 7.109375q4.21875 4.59375 6.59375 11.0625q2.375 6.46875 2.375 14.40625zm-15.875 0q0 -9.984375 -4.296875 -15.8125q-4.28125 -5.828125 -11.96875 -5.828125q-7.671875 0 -11.96875 5.828125q-4.28125 5.828125 -4.28125 15.8125q0 10.109375 4.28125 16.0q4.296875 5.890625 11.96875 5.890625q7.6875 0 11.96875 -5.890625q4.296875 -5.890625 4.296875 -16.0z" fill-rule="nonzero"/><path fill="#e9af00" d="m248.74167 98.448494q0 7.9375 -2.3125 14.46875q-2.296875 6.515625 -6.53125 11.125q-4.21875 4.6093674 -10.171875 7.1718674q-5.953125 2.5625 -13.125 2.5625q-7.15625 0 -13.046875 -2.5625q-5.890625 -2.5625 -10.125 -7.1718674q-4.21875 -4.609375 -6.59375 -11.125q-2.359375 -6.53125 -2.359375 -14.46875q0 -7.9375 2.359375 -14.40625q2.375 -6.46875 6.65625 -11.0625q4.296875 -4.609375 10.1875 -7.109375q5.890625 -2.5 12.921875 -2.5q7.046875 0 13.0 2.5q5.953125 2.5 10.171875 7.109375q4.21875 4.59375 6.59375 11.0625q2.375 6.46875 2.375 14.40625zm-15.875 0q0 -9.984375 -4.296875 -15.8125q-4.28125 -5.828125 -11.96875 -5.828125q-7.671875 0 -11.96875 5.828125q-4.28125 5.828125 -4.28125 15.8125q0 10.109375 4.28125 16.0q4.296875 5.890625 11.96875 5.890625q7.6875 0 11.96875 -5.890625q4.296875 -5.890625 4.296875 -16.0z" fill-rule="nonzero"/><path fill="#3878e5" d="m264.7388 131.97974l0 -96.76562l15.484375 -2.5625l0 33.15625q2.5625 -0.90625 5.953125 -1.546875q3.390625 -0.640625 6.71875 -0.640625q8.0625 0 13.375 2.25q5.3125 2.234375 8.515625 6.265625q3.203125 4.03125 4.546875 9.671875q1.34375 5.625 1.34375 12.546875l0 37.624992l-15.5 0l0 -35.203117q0 -5.375 -0.703125 -9.140625q-0.703125 -3.78125 -2.296875 -6.140625q-1.59375 -2.375 -4.296875 -3.46875q-2.6875 -1.09375 -6.640625 -1.09375q-3.078125 0 -6.28125 0.640625q-3.203125 0.640625 -4.734375 1.15625l0 53.249992l-15.484375 0z" fill-rule="nonzero"/><path fill="#2ca24c" d="m362.53168 133.26099q-6.921875 -0.125 -11.46875 -1.53125q-4.53125 -1.40625 -7.21875 -4.0312424q-2.6875 -2.625 -3.78125 -6.53125q-1.09375 -3.90625 -1.09375 -8.90625l0 -77.046875l15.5 -2.5625l0 76.671875q0 2.8125 0.4375 4.734375q0.453125 1.921875 1.59375 3.265625q1.15625 1.34375 3.140625 2.046875q1.984375 0.703125 5.0625 1.09375l-2.171875 12.796867z" fill-rule="nonzero"/><path fill="#dc3c2a" d="m373.53204 98.823494q0 -8.828125 2.625 -15.484375q2.625 -6.65625 6.96875 -11.0625q4.359375 -4.421875 9.984375 -6.65625q5.640625 -2.25 11.53125 -2.25q13.828125 0 21.5625 8.578125q7.75 8.578125 7.75 25.59375q0 1.28125 -0.0625 2.890625q-0.0625 1.59375 -0.203125 2.875l-44.15625 0q0.640625 8.0625 5.6875 12.484375q5.0625 4.40625 14.671875 4.40625q5.625 0 10.296875 -1.015625q4.671875 -1.03125 7.359375 -2.171875l2.046875 12.671867q-1.28125 0.640625 -3.515625 1.34375q-2.234375 0.703125 -5.125 1.265625q-2.875 0.578125 -6.203125 0.953125q-3.328125 0.390625 -6.78125 0.390625q-8.828125 0 -15.359375 -2.609375q-6.53125 -2.625 -10.765625 -7.2968674q-4.21875 -4.671875 -6.265625 -11.0q-2.046875 -6.34375 -2.046875 -13.90625zm44.9375 -6.90625q0 -3.203125 -0.90625 -6.078125q-0.890625 -2.890625 -2.625 -5.0q-1.71875 -2.109375 -4.21875 -3.328125q-2.5 -1.21875 -5.953125 -1.21875q-3.578125 0 -6.265625 1.359375q-2.6875 1.34375 -4.546875 3.515625q-1.859375 2.171875 -2.890625 4.984375q-1.015625 2.8125 -1.40625 5.765625l28.8125 0z" fill-rule="nonzero"/></g></svg>