<svg version="1.1" viewBox="0.0 0.0 480.0 480.0" fill="none" stroke="none" stroke-linecap="square" stroke-miterlimit="10" xmlns:xlink="http://www.w3.org/1999/xlink" xmlns="http://www.w3.org/2000/svg"><clipPath id="p.0"><path d="m0 0l480.0 0l0 480.0l-480.0 0l0 -480.0z" clip-rule="nonzero"/></clipPath><g clip-path="url(#p.0)"><path fill="#000000" fill-opacity="0.0" d="m0 0l480.0 0l0 480.0l-480.0 0z" fill-rule="evenodd"/><path fill="#000000" fill-opacity="0.0" d="m32.277607 108.92886l0 0c14.910595 -35.158936 43.177326 -62.954643 78.58183 -77.272385c35.40451 -14.317738 75.04663 -13.984674 110.20557 0.9259224l-56.22046 132.56693z" fill-rule="evenodd"/><path fill="#000000" fill-opacity="0.0" d="m32.277607 108.92886l0 0c14.910595 -35.158936 43.177326 -62.954643 78.58183 -77.272385c35.40451 -14.317738 75.04663 -13.984674 110.20557 0.9259224" fill-rule="evenodd"/><path stroke="#fbbc05" stroke-width="24.0" stroke-linejoin="round" stroke-linecap="butt" d="m32.277607 108.92886l0 0c14.910595 -35.158936 43.177326 -62.954643 78.58183 -77.272385c35.40451 -14.317738 75.04663 -13.984674 110.20557 0.9259224" fill-rule="evenodd"/><path fill="#000000" fill-opacity="0.0" d="m23.521437 192.76128l0 0c-7.3216457 -37.48114 0.5459118 -76.33567 21.871897 -108.01603c21.325989 -31.680359 54.363495 -53.591457 91.84464 -60.9131l27.606293 141.32285z" fill-rule="evenodd"/><path fill="#000000" fill-opacity="0.0" d="m23.521437 192.76128l0 0c-7.3216457 -37.48114 0.5459118 -76.33567 21.871897 -108.01603c21.325989 -31.680359 54.363495 -53.591457 91.84464 -60.9131" fill-rule="evenodd"/><path stroke="#fbbc05" stroke-width="24.0" stroke-linejoin="round" stroke-linecap="butt" d="m23.521437 192.76128l0 0c-7.3216457 -37.48114 0.5459118 -76.33567 21.871897 -108.01603c21.325989 -31.680359 54.363495 -53.591457 91.84464 -60.9131" fill-rule="evenodd"/><path fill="#000000" fill-opacity="0.0" d="m292.60373 231.59229l0 0c-17.621216 33.88507 -47.98152 59.382263 -84.40198 70.88254c-36.42044 11.500275 -75.91768 8.061523 -109.802734 -9.559692l66.44095 -127.763794z" fill-rule="evenodd"/><path fill="#000000" fill-opacity="0.0" d="m292.60373 231.59229l0 0c-17.621216 33.88507 -47.98152 59.382263 -84.40198 70.88254c-36.42044 11.500275 -75.91768 8.061523 -109.802734 -9.559692" fill-rule="evenodd"/><path stroke="#4285f4" stroke-width="24.0" stroke-linejoin="round" stroke-linecap="butt" d="m292.60373 231.59229l0 0c-17.621216 33.88507 -47.98152 59.382263 -84.40198 70.88254c-36.42044 11.500275 -75.91768 8.061523 -109.802734 -9.559692" fill-rule="evenodd"/><path fill="#000000" fill-opacity="0.0" d="m308.2678 152.21812l0 0c3.429016 38.036636 -8.392395 75.87758 -32.863678 105.19823c-24.471283 29.320648 -59.58786 47.719208 -97.62451 51.148224l-12.929123 -143.41731z" fill-rule="evenodd"/><path fill="#000000" fill-opacity="0.0" d="m308.2678 152.21812l0 0c3.429016 38.036636 -8.392395 75.87758 -32.863678 105.19823c-24.471283 29.320648 -59.58786 47.719208 -97.62451 51.148224" fill-rule="evenodd"/><path stroke="#4285f4" stroke-width="24.0" stroke-linejoin="round" stroke-linecap="butt" d="m308.2678 152.21812l0 0c3.429016 38.036636 -8.392395 75.87758 -32.863678 105.19823c-24.471283 29.320648 -59.58786 47.719208 -97.62451 51.148224" fill-rule="evenodd"/><path fill="#000000" fill-opacity="0.0" d="m267.15353 266.85434l192.0 192.0" fill-rule="evenodd"/><path stroke="#4285f4" stroke-width="24.0" stroke-linejoin="round" stroke-linecap="butt" d="m267.15353 266.85434l192.0 192.0" fill-rule="evenodd"/><path fill="#000000" fill-opacity="0.0" d="m164.84776 21.146982l0 0c38.191177 0 74.818146 15.171385 101.82338 42.17662c27.005249 27.005238 42.176636 63.632206 42.176636 101.82338l-144.00002 0z" fill-rule="evenodd"/><path fill="#000000" fill-opacity="0.0" d="m164.84776 21.146982l0 0c38.191177 0 74.818146 15.171385 101.82338 42.17662c27.005249 27.005238 42.176636 63.632206 42.176636 101.82338" fill-rule="evenodd"/><path stroke="#ea4335" stroke-width="24.0" stroke-linejoin="round" stroke-linecap="butt" d="m164.84776 21.146982l0 0c38.191177 0 74.818146 15.171385 101.82338 42.17662c27.005249 27.005238 42.176636 63.632206 42.176636 101.82338" fill-rule="evenodd"/><path fill="#000000" fill-opacity="0.0" d="m308.84778 165.14699l0 0c0 38.191162 -15.171387 74.81813 -42.176636 101.82338c-27.005234 27.005219 -63.632202 42.176605 -101.82338 42.176605l0 -143.99998z" fill-rule="evenodd"/><path fill="#000000" fill-opacity="0.0" d="m308.84778 165.14699l0 0c0 38.191162 -15.171387 74.81813 -42.176636 101.82338c-27.005234 27.005219 -63.632202 42.176605 -101.82338 42.176605" fill-rule="evenodd"/><path stroke="#4285f4" stroke-width="24.0" stroke-linejoin="round" stroke-linecap="butt" d="m308.84778 165.14699l0 0c0 38.191162 -15.171387 74.81813 -42.176636 101.82338c-27.005234 27.005219 -63.632202 42.176605 -101.82338 42.176605" fill-rule="evenodd"/><path fill="#000000" fill-opacity="0.0" d="m164.84776 309.14697l0 0c-38.19117 0 -74.81813 -15.171387 -101.82337 -42.176605c-27.005238 -27.005249 -42.17662 -63.632217 -42.17662 -101.82338l144.0 0z" fill-rule="evenodd"/><path fill="#000000" fill-opacity="0.0" d="m164.84776 309.14697l0 0c-38.19117 0 -74.81813 -15.171387 -101.82337 -42.176605c-27.005238 -27.005249 -42.17662 -63.632217 -42.17662 -101.82338" fill-rule="evenodd"/><path stroke="#34a853" stroke-width="24.0" stroke-linejoin="round" stroke-linecap="butt" d="m164.84776 309.14697l0 0c-38.19117 0 -74.81813 -15.171387 -101.82337 -42.176605c-27.005238 -27.005249 -42.17662 -63.632217 -42.17662 -101.82338" fill-rule="evenodd"/><path fill="#000000" fill-opacity="0.0" d="m20.847769 165.14699l0 0c0 -38.191177 15.171385 -74.818146 42.17662 -101.82338c27.005241 -27.005238 63.632202 -42.17662 101.82337 -42.17662l0 144.0z" fill-rule="evenodd"/><path fill="#000000" fill-opacity="0.0" d="m20.847769 165.14699l0 0c0 -38.191177 15.171385 -74.818146 42.17662 -101.82338c27.005241 -27.005238 63.632202 -42.17662 101.82337 -42.17662" fill-rule="evenodd"/><path stroke="#fbbc05" stroke-width="24.0" stroke-linejoin="round" stroke-linecap="butt" d="m20.847769 165.14699l0 0c0 -38.191177 15.171385 -74.818146 42.17662 -101.82338c27.005241 -27.005238 63.632202 -42.17662 101.82337 -42.17662" fill-rule="evenodd"/></g></svg>