<svg version="1.1" viewBox="0.0 0.0 480.0 480.0" fill="none" stroke="none" stroke-linecap="square" stroke-miterlimit="10" xmlns:xlink="http://www.w3.org/1999/xlink" xmlns="http://www.w3.org/2000/svg"><clipPath id="p.0"><path d="m0 0l480.0 0l0 480.0l-480.0 0l0 -480.0z" clip-rule="nonzero"/></clipPath><g clip-path="url(#p.0)"><path fill="#000000" fill-opacity="0.0" d="m0 0l480.0 0l0 480.0l-480.0 0z" fill-rule="evenodd"/><path fill="#000000" fill-opacity="0.0" d="m195.3645 361.52225l0 0c-32.519302 -11.715485 -59.00296 -35.73163 -73.62489 -66.76523c-14.621933 -31.03357 -16.184372 -66.54245 -4.343605 -98.71509l122.614174 44.173233z" fill-rule="evenodd"/><path fill="#000000" fill-opacity="0.0" d="m195.3645 361.52225l0 0c-32.519302 -11.715485 -59.00296 -35.73163 -73.62489 -66.76523c-14.621933 -31.03357 -16.184372 -66.54245 -4.343605 -98.71509" fill-rule="evenodd"/><path stroke="#fbbc05" stroke-width="24.0" stroke-linejoin="round" stroke-linecap="butt" d="m195.3645 361.52225l0 0c-32.519302 -11.715485 -59.00296 -35.73163 -73.62489 -66.76523c-14.621933 -31.03357 -16.184372 -66.54245 -4.343605 -98.71509" fill-rule="evenodd"/><path fill="#000000" fill-opacity="0.0" d="m126.97706 175.466l0 0c17.295448 -29.654129 45.78869 -51.296112 79.21151 -60.164963c33.42282 -8.868843 69.037415 -4.2380676 99.00897 12.873627l-65.212616 111.81102z" fill-rule="evenodd"/><path fill="#000000" fill-opacity="0.0" d="m126.97706 175.466l0 0c17.295448 -29.654129 45.78869 -51.296112 79.21151 -60.164963c33.42282 -8.868843 69.037415 -4.2380676 99.00897 12.873627" fill-rule="evenodd"/><path stroke="#4285f4" stroke-width="24.0" stroke-linejoin="round" stroke-linecap="butt" d="m126.97706 175.466l0 0c17.295448 -29.654129 45.78869 -51.296112 79.21151 -60.164963c33.42282 -8.868843 69.037415 -4.2380676 99.00897 12.873627" fill-rule="evenodd"/><path fill="#83bd92" d="m24.0 240.0l0 0c0 -119.2935 96.7065 -216.0 216.0 -216.0l0 0c57.286774 0 112.2272 22.757076 152.73508 63.26494c40.507843 40.50786 63.264923 95.4483 63.264923 152.73506l0 0c0 119.29352 -96.70648 216.0 -216.0 216.0l0 0c-119.2935 0 -216.0 -96.70648 -216.0 -216.0z" fill-rule="evenodd"/><path stroke="#34a853" stroke-width="12.0" stroke-linejoin="round" stroke-linecap="butt" d="m24.0 240.0l0 0c0 -119.2935 96.7065 -216.0 216.0 -216.0l0 0c57.286774 0 112.2272 22.757076 152.73508 63.26494c40.507843 40.50786 63.264923 95.4483 63.264923 152.73506l0 0c0 119.29352 -96.70648 216.0 -216.0 216.0l0 0c-119.2935 0 -216.0 -96.70648 -216.0 -216.0z" fill-rule="evenodd"/><path fill="#000000" fill-opacity="0.0" d="m323.05557 322.1133l0 0c-22.015076 21.797882 -51.880524 34.050446 -83.02634 34.062256c-31.145813 0.011810303 -61.02066 -12.218079 -83.052414 -33.999268l83.00787 -82.188965z" fill-rule="evenodd"/><path fill="#000000" fill-opacity="0.0" d="m323.05557 322.1133l0 0c-22.015076 21.797882 -51.880524 34.050446 -83.02634 34.062256c-31.145813 0.011810303 -61.02066 -12.218079 -83.052414 -33.999268" fill-rule="evenodd"/><path stroke="#ea4335" stroke-width="24.0" stroke-linejoin="round" stroke-linecap="butt" d="m323.05557 322.1133l0 0c-22.015076 21.797882 -51.880524 34.050446 -83.02634 34.062256c-31.145813 0.011810303 -61.02066 -12.218079 -83.052414 -33.999268" fill-rule="evenodd"/><path fill="#000000" fill-opacity="0.0" d="m157.8587 323.28656l0 0c-21.797867 -22.015076 -34.050423 -51.880524 -34.062233 -83.02634c-0.011817932 -31.145798 12.218086 -61.020645 33.999245 -83.052414l82.18898 83.00787z" fill-rule="evenodd"/><path fill="#000000" fill-opacity="0.0" d="m157.8587 323.28656l0 0c-21.797867 -22.015076 -34.050423 -51.880524 -34.062233 -83.02634c-0.011817932 -31.145798 12.218086 -61.020645 33.999245 -83.052414" fill-rule="evenodd"/><path stroke="#fbbc05" stroke-width="24.0" stroke-linejoin="round" stroke-linecap="butt" d="m157.8587 323.28656l0 0c-21.797867 -22.015076 -34.050423 -51.880524 -34.062233 -83.02634c-0.011817932 -31.145798 12.218086 -61.020645 33.999245 -83.052414" fill-rule="evenodd"/><path fill="#000000" fill-opacity="0.0" d="m147.74756 331.3095l0 0c-24.47927 -24.199463 -38.23822 -57.029236 -38.25003 -91.267166c-0.011810303 -34.237946 13.72448 -67.07945 38.187042 -91.299774l92.29921 91.244095z" fill-rule="evenodd"/><path fill="#000000" fill-opacity="0.0" d="m147.74756 331.3095l0 0c-24.47927 -24.199463 -38.23822 -57.029236 -38.25003 -91.267166c-0.011810303 -34.237946 13.72448 -67.07945 38.187042 -91.299774" fill-rule="evenodd"/><path stroke="#666666" stroke-width="24.0" stroke-linejoin="round" stroke-linecap="butt" d="m147.74756 331.3095l0 0c-24.47927 -24.199463 -38.23822 -57.029236 -38.25003 -91.267166c-0.011810303 -34.237946 13.72448 -67.07945 38.187042 -91.299774" fill-rule="evenodd"/><path fill="#000000" fill-opacity="0.0" d="m166.99257 314.0582l0 0c-19.375427 -19.571716 -30.26706 -46.121643 -30.27887 -73.80911c-0.0118255615 -27.687454 10.857162 -54.244415 30.215881 -73.828674l73.055115 73.79527z" fill-rule="evenodd"/><path fill="#000000" fill-opacity="0.0" d="m166.99257 314.0582l0 0c-19.375427 -19.571716 -30.26706 -46.121643 -30.27887 -73.80911c-0.0118255615 -27.687454 10.857162 -54.244415 30.215881 -73.828674" fill-rule="evenodd"/><path stroke="#666666" stroke-width="24.0" stroke-linejoin="round" stroke-linecap="butt" d="m166.99257 314.0582l0 0c-19.375427 -19.571716 -30.26706 -46.121643 -30.27887 -73.80911c-0.0118255615 -27.687454 10.857162 -54.244415 30.215881 -73.828674" fill-rule="evenodd"/><path fill="#000000" fill-opacity="0.0" d="m156.91382 157.86136l0 0c22.01506 -21.797882 51.880524 -34.05043 83.02634 -34.06224c31.145813 -0.011817932 61.02066 12.218079 83.0524 33.999237l-83.00786 82.18898z" fill-rule="evenodd"/><path fill="#000000" fill-opacity="0.0" d="m156.91382 157.86136l0 0c22.01506 -21.797882 51.880524 -34.05043 83.02634 -34.06224c31.145813 -0.011817932 61.02066 12.218079 83.0524 33.999237" fill-rule="evenodd"/><path stroke="#4285f4" stroke-width="24.0" stroke-linejoin="round" stroke-linecap="butt" d="m156.91382 157.86136l0 0c22.01506 -21.797882 51.880524 -34.05043 83.02634 -34.06224c31.145813 -0.011817932 61.02066 12.218079 83.0524 33.999237" fill-rule="evenodd"/><path fill="#000000" fill-opacity="0.0" d="m147.68549 148.97159l0 0c24.462555 -24.220322 57.647552 -37.83545 92.25467 -37.85022c34.607086 -0.014762878 67.80148 13.572044 92.28076 37.771484l-92.23622 91.32283z" fill-rule="evenodd"/><path fill="#000000" fill-opacity="0.0" d="m147.68549 148.97159l0 0c24.462555 -24.220322 57.647552 -37.83545 92.25467 -37.85022c34.607086 -0.014762878 67.80148 13.572044 92.28076 37.771484" fill-rule="evenodd"/><path stroke="#434343" stroke-width="24.0" stroke-linejoin="round" stroke-linecap="butt" d="m147.68549 148.97159l0 0c24.462555 -24.220322 57.647552 -37.83545 92.25467 -37.85022c34.607086 -0.014762878 67.80148 13.572044 92.28076 37.771484" fill-rule="evenodd"/><path fill="#000000" fill-opacity="0.0" d="m147.77472 331.31018l0 0c24.479279 24.199432 57.67366 37.786224 92.28076 37.771484c34.607117 -0.014770508 67.792114 -13.629913 92.25467 -37.85022l-92.29921 -91.24411z" fill-rule="evenodd"/><path fill="#000000" fill-opacity="0.0" d="m147.77472 331.31018l0 0c24.479279 24.199432 57.67366 37.786224 92.28076 37.771484c34.607117 -0.014770508 67.792114 -13.629913 92.25467 -37.85022" fill-rule="evenodd"/><path stroke="#666666" stroke-width="24.0" stroke-linejoin="round" stroke-linecap="butt" d="m147.77472 331.31018l0 0c24.479279 24.199432 57.67366 37.786224 92.28076 37.771484c34.607117 -0.014770508 67.792114 -13.629913 92.25467 -37.85022" fill-rule="evenodd"/><path fill="#000000" fill-opacity="0.0" d="m166.14217 167.22356l0 0c19.571732 -19.375427 46.12166 -30.26706 73.80911 -30.27887c27.687454 -0.011810303 54.24443 10.857162 73.82869 30.215881l-73.79527 73.055115z" fill-rule="evenodd"/><path fill="#000000" fill-opacity="0.0" d="m166.14217 167.22356l0 0c19.571732 -19.375427 46.12166 -30.26706 73.80911 -30.27887c27.687454 -0.011810303 54.24443 10.857162 73.82869 30.215881" fill-rule="evenodd"/><path stroke="#666666" stroke-width="24.0" stroke-linejoin="round" stroke-linecap="butt" d="m166.14217 167.22356l0 0c19.571732 -19.375427 46.12166 -30.26706 73.80911 -30.27887c27.687454 -0.011810303 54.24443 10.857162 73.82869 30.215881" fill-rule="evenodd"/><path fill="#000000" fill-opacity="0.0" d="m313.8272 312.97946l0 0c-19.571716 19.375427 -46.121643 30.26706 -73.80911 30.27887c-27.687454 0.011810303 -54.24443 -10.857147 -73.828674 -30.215881l73.79527 -73.055115z" fill-rule="evenodd"/><path fill="#000000" fill-opacity="0.0" d="m313.8272 312.97946l0 0c-19.571716 19.375427 -46.121643 30.26706 -73.80911 30.27887c-27.687454 0.011810303 -54.24443 -10.857147 -73.828674 -30.215881" fill-rule="evenodd"/><path stroke="#666666" stroke-width="24.0" stroke-linejoin="round" stroke-linecap="butt" d="m313.8272 312.97946l0 0c-19.571716 19.375427 -46.121643 30.26706 -73.80911 30.27887c-27.687454 0.011810303 -54.24443 -10.857147 -73.828674 -30.215881" fill-rule="evenodd"/><path fill="#000000" fill-opacity="0.0" d="m132.47496 313.1184l0 0c21.964264 31.614288 57.004105 51.924774 95.61948 55.424866c38.61537 3.5000916 76.80531 -10.172882 104.21571 -37.31183l-92.29921 -91.24411z" fill-rule="evenodd"/><path fill="#000000" fill-opacity="0.0" d="m132.47496 313.1184l0 0c21.964264 31.614288 57.004105 51.924774 95.61948 55.424866c38.61537 3.5000916 76.80531 -10.172882 104.21571 -37.31183" fill-rule="evenodd"/><path stroke="#434343" stroke-width="24.0" stroke-linejoin="round" stroke-linecap="butt" d="m132.47496 313.1184l0 0c21.964264 31.614288 57.004105 51.924774 95.61948 55.424866c38.61537 3.5000916 76.80531 -10.172882 104.21571 -37.31183" fill-rule="evenodd"/><path fill="#000000" fill-opacity="0.0" d="m147.74756 331.3095l0 0c-26.92762 -26.619812 -40.76124 -63.54715 -37.874275 -101.10129c2.886963 -37.554123 22.206596 -71.98984 52.89411 -94.27959l77.216385 104.05803z" fill-rule="evenodd"/><path fill="#000000" fill-opacity="0.0" d="m147.74756 331.3095l0 0c-26.92762 -26.619812 -40.76124 -63.54715 -37.874275 -101.10129c2.886963 -37.554123 22.206596 -71.98984 52.89411 -94.27959" fill-rule="evenodd"/><path stroke="#434343" stroke-width="24.0" stroke-linejoin="round" stroke-linecap="butt" d="m147.74756 331.3095l0 0c-26.92762 -26.619812 -40.76124 -63.54715 -37.874275 -101.10129c2.886963 -37.554123 22.206596 -71.98984 52.89411 -94.27959" fill-rule="evenodd"/></g></svg>